PathFileType	4	(X/Y/Z)	/Users/visionmauri/Downloads/Videos/OAW01-top_Sports2D/OAW01-top_Sports2D_px_person00.trc
DataRate	CameraRate	NumFrames	NumMarkers	Units	OrigDataRate	OrigDataStartFrame	OrigNumFrames
26.0	26.0	7	22	m	26.0	1526	2035
Frame#	Time	Hip			RHip			RKnee			RAnkle			RBigToe			RSmallToe			RHeel			LHip			LKnee			LAnkle			LBigToe			LSmallToe			LHeel			Neck			Head			Nose			RShoulder			RElbow			RWrist			LShoulder			LElbow			LWrist			
		X1	Y1	Z1	X2	Y2	Z2	X3	Y3	Z3	X4	Y4	Z4	X5	Y5	Z5	X6	Y6	Z6	X7	Y7	Z7	X8	Y8	Z8	X9	Y9	Z9	X10	Y10	Z10	X11	Y11	Z11	X12	Y12	Z12	X13	Y13	Z13	X14	Y14	Z14	X15	Y15	Z15	X16	Y16	Z16	X17	Y17	Z17	X18	Y18	Z18	X19	Y19	Z19	X20	Y20	Z20	X21	Y21	Z21	X22	Y22	Z22
1526	58.72116330080932	514.0407546126814	486.6077333167302	0.0	528.0322121782125	488.22765051311757	0.0	524.8434577675254	541.881020622569	0.0	524.0700879932635	591.8875913531626	0.0	522.6581224092413	612.841378500321	0.0	533.4865969771122	612.4203436490403	0.0	522.1337465041314	604.1987619816289	0.0	500.5687141250802	488.7742915039591	0.0	502.2913864458801	547.2441930481978	0.0	504.8519654164179	602.9060353522516	0.0	509.8592245069333	610.0014271236812	0.0	499.1392166712455	612.4821025622077	0.0	506.53431821156045	614.4061616219165	0.0	515.3439123612027	405.939085929664	0.0	517.139554721059	373.0946874951299	0.0	518.3945141593277	391.7121290300192	0.0	540.8612344643241	416.5015887600393	0.0	545.9093714012328	456.07677040936517	0.0	549.0622339720544	491.62286567640615	0.0	489.89560252482755	416.1945911221685	0.0	480.812752221386	454.9055555249964	0.0	477.65779231557696	488.5951429629033	0.0
1527	58.75964374858181	514.0942406513738	485.2378093473894	0.0	528.1902887142785	486.98848924942956	0.0	525.2350606166561	541.6964473346789	0.0	524.5157426114099	595.1295110690659	0.0	523.2057095268714	608.5710460972924	0.0	533.4643262259027	609.7186641636591	0.0	522.8851626795168	606.5455227291245	0.0	500.2318132059243	487.22089446655076	0.0	502.4318783675786	546.3830421490297	0.0	504.5711434462849	602.8532097113391	0.0	509.68198794200737	608.582865172097	0.0	499.4385225772034	611.9837702452791	0.0	506.1743873094807	614.508281727418	0.0	515.4235287123893	404.1661998965233	0.0	517.1172504346615	366.8600404487754	0.0	518.6683125341663	389.1939030825548	0.0	540.7774994865473	415.433076823226	0.0	545.6199665092414	455.3018986867227	0.0	548.7369612575901	491.2560529918554	0.0	490.4118092193449	414.4296912771989	0.0	481.1840149046348	452.9366854839709	0.0	477.7425548817904	485.3026911778828	0.0
1528	58.798124196354294	514.2353590817562	483.87230641874964	0.0	528.5702649375203	486.0954084027253	0.0	525.8053408642643	541.7074215847218	0.0	525.2987316058584	597.0229015207692	0.0	523.6319516297918	605.5152574189066	0.0	533.6063397247246	607.5066746583532	0.0	523.728287577907	607.612417594194	0.0	500.22966566593374	486.09578817650936	0.0	502.63455635335833	545.4844484616176	0.0	504.23638339523575	602.5387209814429	0.0	509.38912841993397	607.5062314214657	0.0	499.3231812298884	611.0319262206696	0.0	505.9080320009624	614.1696028743443	0.0	515.5477543164368	402.9172788427173	0.0	517.5830981289878	361.79386820901516	0.0	518.4163711314899	386.71737690130544	0.0	540.6115659986938	414.6912724203861	0.0	545.1285869616885	454.79049239568394	0.0	548.6094437357126	491.19497460959417	0.0	490.87448277105364	413.5618605119873	0.0	481.65488441610904	451.61417090391285	0.0	478.14571864777554	483.02393333785767	0.0
1529	58.83660464412677	514.3308377008617	483.46786890392974	0.0	528.6899233430802	486.03465854690586	0.0	526.4296624508703	541.8226288300979	0.0	526.0616304580034	596.7441835764373	0.0	524.5845917478026	603.4255641728655	0.0	534.161055365841	605.3680232525192	0.0	524.3441714211573	606.865489816766	0.0	500.5785955563533	486.0474698435444	0.0	502.71195988599607	545.1527928643593	0.0	504.2352299682247	601.9627029925321	0.0	509.10596833251424	607.2678078971414	0.0	499.2804124716689	610.4546945671486	0.0	505.84445311204246	613.4598150926403	0.0	516.0869568733817	402.4753406293023	0.0	518.1582218945398	361.82194303756654	0.0	518.9008341364497	385.1607822283949	0.0	540.53215020042	414.86540883398965	0.0	544.8622902921426	454.85349539550776	0.0	548.6212764694766	491.2974087446602	0.0	491.2518396877646	413.77509991058287	0.0	481.82323656304294	451.35643143853673	0.0	478.5108677403961	481.4992653611504	0.0
1530	58.87508509189926	514.5935741414785	483.67449725760974	0.0	528.7973503690542	486.63467016698013	0.0	527.0686213753188	541.6517962976959	0.0	526.8001018259522	595.3196192204774	0.0	525.7799673956291	600.9263430196297	0.0	534.9626030025009	602.6942525032645	0.0	525.018172366688	605.2348750007715	0.0	501.037635182408	486.59822881524127	0.0	502.96962730773447	545.230860519277	0.0	504.4450660817168	601.8086092051293	0.0	509.1659907560146	607.1253351957492	0.0	499.3552991141166	610.3227389712042	0.0	505.8112017367751	612.9903385943322	0.0	517.0266105131025	402.91106917883013	0.0	518.9883864433401	365.0122987831412	0.0	520.44235707909	385.5403461871148	0.0	540.7284743651993	415.63478661883397	0.0	545.2185463007669	455.2755276721393	0.0	548.8825380468251	491.5285485674609	0.0	491.80240458313193	414.21795663485517	0.0	482.0807185430072	451.6415120091553	0.0	479.0677547301059	480.50130991430956	0.0
1531	58.913565539671744	515.2699500127501	483.77313932051453	0.0	529.3281449300068	487.1810125356982	0.0	527.6570849451176	540.9891472678491	0.0	527.5006736222641	593.8420166970828	0.0	526.1896209637084	598.2768818427584	0.0	535.4988960550104	599.9952808197262	0.0	525.6056289668633	603.808701361418	0.0	501.6062303820795	486.837463593945	0.0	503.73545652659385	544.9897221005572	0.0	504.5143930036236	602.1628017956122	0.0	509.7366157105407	606.7950326304303	0.0	499.40197498818446	610.1902375903683	0.0	505.73488937371496	613.2097182125482	0.0	518.1703905128406	404.2157648888355	0.0	520.587469465536	368.0726824393655	0.0	522.6144863968628	387.7763430205113	0.0	541.3962149284145	416.2508486269339	0.0	546.0007121342591	455.6390614205802	0.0	549.5877935201282	492.2388309907811	0.0	492.6940328738093	414.35978313217765	0.0	482.9332894103242	451.83131729911145	0.0	480.25668659759106	479.94704584284915	0.0
1532	58.95204598744422	516.2688363548287	484.014638564237	0.0	530.1372451056094	487.37556911159726	0.0	528.1206928569654	540.4214095160889	0.0	527.769831192658	592.940275561387	0.0	525.5752943771191	597.4793606457251	0.0	535.4770099502789	599.0483753315572	0.0	525.7575539819895	603.0621100376334	0.0	502.40011473615243	486.8212535528506	0.0	504.6508416371087	544.3121747149917	0.0	504.5548035566093	602.0196099036707	0.0	510.20823190690163	606.4758126101675	0.0	499.4039531495906	609.769174923146	0.0	505.8001485830398	613.546644594461	0.0	519.3605804911638	405.4578655565447	0.0	522.619828704935	370.2884201393619	0.0	524.4523928088068	389.86309873383	0.0	542.5546334356223	416.5963284869826	0.0	546.7101324994682	455.95469990745937	0.0	550.4787783395803	493.2260802538229	0.0	493.8039197974929	414.3432888754975	0.0	484.1063201316618	451.8382552347983	0.0	481.60470288634735	479.79081922067553	0.0
